<?xml version="1.0" encoding="utf-8"?>
<!-- Generator: Adobe Illustrator 16.0.4, SVG Export Plug-In . SVG Version: 6.00 Build 0)  -->
<!DOCTYPE svg PUBLIC "-//W3C//DTD SVG 1.1//EN" "http://www.w3.org/Graphics/SVG/1.1/DTD/svg11.dtd">
<svg version="1.1" id="Layer_1" xmlns="http://www.w3.org/2000/svg" xmlns:xlink="http://www.w3.org/1999/xlink" x="0px" y="0px"
	 width="20px" height="16.278px" viewBox="0 0 20 16.278" enable-background="new 0 0 20 16.278" xml:space="preserve">
<ellipse transform="matrix(0.9426 -0.334 0.334 0.9426 -2.1447 3.7952)" fill="#D12929" cx="9.965" cy="8.135" rx="9.094" ry="7.844"/>
<path opacity="0.2" fill="#010101" d="M5.538,15.396c-1.646-0.729-2.417-1.542-3.125-2.396c0-0.125,12.093-5.728,12.093-5.728
	S4.683,2.458,4.6,2.375S6.413,0.791,8.35,0.5c0.271,0.167,10.06,5.03,10.06,5.03v3.563C18.41,9.093,5.621,15.396,5.538,15.396z"/>
<g>
	<path fill="#FFFFFF" d="M5.153,10.706c-0.633,0.008-1.135-0.178-1.505-0.56C3.277,9.767,3.087,9.233,3.08,8.548
		c-0.009-0.689,0.154-1.24,0.489-1.65c0.335-0.411,0.789-0.62,1.361-0.627c0.537-0.006,0.963,0.165,1.28,0.513
		c0.317,0.349,0.479,0.812,0.486,1.391l0.005,0.41L3.752,8.622c0.02,0.502,0.151,0.882,0.396,1.14
		c0.244,0.258,0.585,0.383,1.022,0.377c0.461-0.004,0.916-0.107,1.364-0.305l0.007,0.578c-0.227,0.101-0.443,0.175-0.648,0.221
		C5.688,10.678,5.442,10.703,5.153,10.706z M4.929,6.814C4.585,6.818,4.312,6.933,4.111,7.16c-0.202,0.227-0.318,0.538-0.35,0.934
		l2.238-0.028c-0.005-0.409-0.1-0.721-0.285-0.936C5.529,6.915,5.268,6.81,4.929,6.814z"/>
	<path fill="#FFFFFF" d="M9.792,10.57L9.656,9.963H9.625c-0.21,0.271-0.42,0.455-0.631,0.553c-0.211,0.097-0.475,0.148-0.793,0.152
		c-0.424,0.006-0.758-0.1-1.002-0.316C6.955,10.137,6.83,9.826,6.825,9.424C6.814,8.559,7.5,8.097,8.882,8.038l0.727-0.032
		L9.605,7.74c-0.004-0.336-0.08-0.583-0.226-0.741C9.232,6.84,9,6.763,8.683,6.767C8.326,6.771,7.923,6.886,7.476,7.11L7.271,6.617
		C7.479,6.5,7.71,6.407,7.96,6.338c0.25-0.068,0.502-0.104,0.754-0.107c0.51-0.006,0.89,0.102,1.139,0.326
		c0.249,0.223,0.376,0.585,0.383,1.085l0.037,2.922L9.792,10.57z M8.322,10.131c0.404-0.005,0.719-0.119,0.947-0.344
		c0.228-0.224,0.339-0.535,0.334-0.934L9.598,8.467L8.95,8.502C8.435,8.527,8.064,8.611,7.838,8.756
		C7.612,8.901,7.501,9.123,7.505,9.423c0.003,0.234,0.076,0.412,0.219,0.532S8.066,10.135,8.322,10.131z"/>
	<path fill="#FFFFFF" d="M13.683,9.354c0.006,0.398-0.139,0.707-0.432,0.928c-0.295,0.219-0.713,0.332-1.246,0.339
		c-0.57,0.007-1.012-0.077-1.332-0.253l-0.008-0.602c0.207,0.103,0.428,0.182,0.664,0.238s0.465,0.084,0.684,0.081
		c0.338-0.005,0.596-0.062,0.779-0.172c0.18-0.11,0.27-0.276,0.268-0.497c-0.002-0.166-0.076-0.309-0.223-0.425
		s-0.43-0.253-0.852-0.409c-0.398-0.144-0.684-0.269-0.854-0.378c-0.169-0.109-0.296-0.233-0.38-0.373
		c-0.083-0.14-0.127-0.307-0.129-0.502c-0.004-0.35,0.134-0.627,0.416-0.832c0.281-0.205,0.668-0.311,1.164-0.317
		c0.461-0.006,0.912,0.083,1.355,0.264l-0.225,0.53c-0.432-0.172-0.824-0.255-1.17-0.251c-0.309,0.004-0.539,0.055-0.695,0.153
		c-0.154,0.099-0.23,0.232-0.229,0.402c0.002,0.115,0.031,0.212,0.092,0.292c0.061,0.08,0.154,0.156,0.285,0.227
		S12,7.97,12.371,8.104c0.512,0.179,0.855,0.36,1.037,0.546C13.587,8.835,13.681,9.069,13.683,9.354z"/>
	<path fill="#FFFFFF" d="M13.349,6.244l0.695-0.008l0.967,2.429c0.213,0.555,0.346,0.956,0.398,1.203l0.031-0.001
		c0.033-0.134,0.1-0.36,0.205-0.684c0.104-0.324,0.443-1.316,1.021-2.98l0.697-0.009l-1.779,4.898
		c-0.178,0.483-0.385,0.827-0.627,1.032c-0.24,0.206-0.537,0.311-0.893,0.314c-0.197,0.003-0.395-0.018-0.586-0.06l-0.006-0.519
		c0.143,0.029,0.303,0.043,0.48,0.04c0.445-0.006,0.76-0.259,0.943-0.762l0.23-0.612L13.349,6.244z"/>
</g>
</svg>
