<?xml version="1.0" encoding="utf-8"?>
<!-- Generator: Adobe Illustrator 16.0.4, SVG Export Plug-In . SVG Version: 6.00 Build 0)  -->
<!DOCTYPE svg PUBLIC "-//W3C//DTD SVG 1.1//EN" "http://www.w3.org/Graphics/SVG/1.1/DTD/svg11.dtd">
<svg version="1.1" xmlns="http://www.w3.org/2000/svg" xmlns:xlink="http://www.w3.org/1999/xlink" x="0px" y="0px" width="22px"
	 height="18.495px" viewBox="-2 -3.218 22 18.495" enable-background="new -2 -3.218 22 18.495" xml:space="preserve">
<g id="Layer_1" display="none">
	<g id="Scratch" display="inline">
		
			<ellipse transform="matrix(0.334 0.9426 -0.9426 0.334 11.4088 -4.6052)" fill="#73A02B" cx="8.963" cy="5.771" rx="8.237" ry="9.548"/>
		
			<ellipse transform="matrix(0.334 0.9426 -0.9426 0.334 11.4088 -4.6052)" fill="#E8BB00" cx="8.963" cy="5.771" rx="8.237" ry="9.548"/>
		<path opacity="0.2" fill="#010101" enable-background="new    " d="M4.312,13.412c-1.729-0.766-2.538-1.619-3.281-2.516
			c0-0.131,12.698-6.016,12.698-6.016S3.413-0.173,3.326-0.26C3.239-0.347,5.229-1.924,7.264-2.229
			c0.284,0.176,10.565,5.281,10.565,5.281v3.74C17.828,6.793,4.398,13.412,4.312,13.412z"/>
		<g>
			<path fill="#423601" d="M0.139,7.001l0.195-0.24c0.195,0.245,0.553,0.447,0.982,0.447c0.509,0,0.812-0.265,0.812-0.617
				c0-0.832-1.921-0.359-1.921-1.454c0-0.466,0.397-0.845,1.083-0.845c0.522,0,0.869,0.202,1.09,0.448L2.197,4.973
				C2.021,4.733,1.693,4.57,1.29,4.57c-0.473,0-0.755,0.239-0.755,0.554c0,0.763,1.914,0.296,1.914,1.468
				c0,0.49-0.378,0.894-1.14,0.894C0.817,7.485,0.439,7.34,0.139,7.001z"/>
			<path fill="#423601" d="M2.796,5.886c0-0.889,0.579-1.594,1.474-1.594c0.528,0,0.831,0.209,1.075,0.518l-0.226,0.2
				C4.898,4.708,4.622,4.588,4.288,4.588c-0.712,0-1.146,0.567-1.146,1.297S3.577,7.19,4.288,7.19c0.334,0,0.61-0.126,0.831-0.429
				l0.228,0.201C5.101,7.278,4.799,7.485,4.271,7.485C3.375,7.485,2.796,6.773,2.796,5.886z"/>
			<path fill="#423601" d="M5.75,7.408V4.367h0.328v0.523C6.336,4.55,6.683,4.305,7.104,4.305v0.359
				C7.049,4.652,7.004,4.652,6.941,4.652c-0.309,0-0.724,0.276-0.863,0.541v2.216H5.75z"/>
			<path fill="#423601" d="M9.663,7.408V6.925c-0.216,0.314-0.606,0.56-1.059,0.56c-0.806,0-1.354-0.617-1.354-1.593
				c0-0.962,0.548-1.6,1.354-1.6c0.435,0,0.812,0.221,1.059,0.567V4.367h0.332v3.041H9.663z M9.663,6.648V5.143
				C9.486,4.853,9.09,4.588,8.661,4.588c-0.674,0-1.064,0.567-1.064,1.303c0,0.736,0.391,1.299,1.064,1.299
				C9.089,7.19,9.485,6.937,9.663,6.648z"/>
			<path fill="#423601" d="M10.754,6.824V4.657h-0.505v-0.29h0.505v-0.83h0.332v0.831h0.617v0.29h-0.617v2.115
				c0,0.246,0.101,0.417,0.315,0.417c0.146,0,0.271-0.07,0.341-0.146l0.125,0.252c-0.119,0.112-0.265,0.188-0.517,0.188
				C10.948,7.485,10.754,7.239,10.754,6.824z"/>
			<path fill="#423601" d="M11.925,5.886c0-0.889,0.58-1.594,1.473-1.594c0.528,0,0.832,0.209,1.077,0.518l-0.227,0.2
				c-0.22-0.302-0.498-0.422-0.83-0.422c-0.712,0-1.146,0.567-1.146,1.297s0.435,1.305,1.146,1.305c0.332,0,0.61-0.126,0.83-0.429
				l0.228,0.2c-0.246,0.316-0.55,0.522-1.078,0.522C12.505,7.485,11.925,6.773,11.925,5.886z"/>
			<path fill="#423601" d="M16.933,7.408V5.337c0-0.585-0.295-0.748-0.736-0.748c-0.392,0-0.794,0.246-0.987,0.522v2.298H14.88V3.21
				h0.328v1.619c0.22-0.265,0.654-0.537,1.095-0.537c0.617,0,0.958,0.291,0.958,0.977v2.141L16.933,7.408L16.933,7.408z"/>
		</g>
	</g>
</g>
<g id="Layer_4">
	<g id="Scratch_1_">
		
			<ellipse transform="matrix(0.334 0.9426 -0.9426 0.334 11.693 -4.4059)" fill="#73A02B" cx="8.964" cy="6.072" rx="8.237" ry="9.549"/>
		
			<ellipse transform="matrix(0.334 0.9426 -0.9426 0.334 11.693 -4.4059)" fill="#A0A09F" cx="8.964" cy="6.072" rx="8.237" ry="9.549"/>
		<path opacity="0.2" fill="#010101" enable-background="new    " d="M4.312,13.713c-1.729-0.768-2.538-1.619-3.281-2.516
			c0-0.131,12.699-6.016,12.699-6.016S3.414,0.127,3.327,0.04C3.239-0.047,5.23-1.623,7.265-1.928
			c0.284,0.176,10.564,5.281,10.564,5.281v3.74C17.829,7.094,4.398,13.713,4.312,13.713z"/>
		<g display="none">
			<path display="inline" fill="#020200" d="M0.139,7.301l0.195-0.24c0.195,0.245,0.554,0.447,0.983,0.447
				c0.509,0,0.812-0.265,0.812-0.617c0-0.831-1.921-0.358-1.921-1.454c0-0.465,0.396-0.844,1.083-0.844
				c0.522,0,0.869,0.202,1.089,0.448L2.198,5.273C2.021,5.033,1.693,4.87,1.291,4.87c-0.473,0-0.756,0.238-0.756,0.554
				c0,0.763,1.914,0.296,1.914,1.467c0,0.491-0.378,0.895-1.139,0.895C0.818,7.785,0.44,7.641,0.139,7.301z"/>
			<path display="inline" fill="#020200" d="M2.796,6.187c0-0.89,0.58-1.594,1.474-1.594c0.529,0,0.832,0.208,1.076,0.517
				L5.12,5.311C4.899,5.008,4.622,4.889,4.288,4.889c-0.712,0-1.146,0.566-1.146,1.297c0,0.729,0.435,1.304,1.146,1.304
				c0.334,0,0.611-0.126,0.832-0.429l0.227,0.201C5.102,7.578,4.8,7.785,4.271,7.785C3.376,7.785,2.796,7.073,2.796,6.187z"/>
			<path display="inline" fill="#020200" d="M5.751,7.709V4.668h0.327v0.522c0.259-0.34,0.605-0.585,1.027-0.585v0.358
				C7.049,4.952,7.005,4.952,6.941,4.952c-0.309,0-0.723,0.276-0.863,0.541v2.216H5.751z"/>
			<path display="inline" fill="#020200" d="M9.663,7.709V7.225C9.448,7.54,9.058,7.785,8.604,7.785
				c-0.805,0-1.354-0.617-1.354-1.593c0-0.963,0.549-1.6,1.354-1.6c0.436,0,0.812,0.221,1.059,0.567V4.668h0.332v3.041H9.663z
				 M9.663,6.948V5.444C9.486,5.153,9.09,4.889,8.661,4.889c-0.674,0-1.064,0.566-1.064,1.303S7.987,7.49,8.661,7.49
				C9.089,7.49,9.485,7.238,9.663,6.948z"/>
			<path display="inline" fill="#020200" d="M10.754,7.125V4.958h-0.505v-0.29h0.505V3.837h0.332v0.832h0.617v0.29h-0.617v2.115
				c0,0.246,0.101,0.416,0.315,0.416c0.146,0,0.271-0.069,0.341-0.146l0.125,0.253c-0.119,0.112-0.265,0.188-0.517,0.188
				C10.948,7.785,10.754,7.539,10.754,7.125z"/>
			<path display="inline" fill="#020200" d="M11.925,6.187c0-0.89,0.58-1.594,1.473-1.594c0.528,0,0.832,0.208,1.078,0.517
				l-0.228,0.201c-0.22-0.303-0.498-0.422-0.83-0.422c-0.712,0-1.146,0.566-1.146,1.297c0,0.729,0.435,1.304,1.146,1.304
				c0.332,0,0.61-0.126,0.83-0.429l0.228,0.2c-0.246,0.317-0.55,0.523-1.078,0.523C12.505,7.785,11.925,7.073,11.925,6.187z"/>
			<path display="inline" fill="#020200" d="M16.933,7.709V5.638c0-0.585-0.295-0.748-0.736-0.748c-0.392,0-0.794,0.246-0.986,0.522
				V7.71h-0.33v-4.2h0.328v1.619c0.22-0.265,0.654-0.536,1.095-0.536c0.617,0,0.958,0.29,0.958,0.977V7.71L16.933,7.709
				L16.933,7.709z"/>
		</g>
	</g>
	<g>
		<path fill="#FCFCFC" d="M3.049,4.698C2.9,4.573,2.7,4.509,2.447,4.509c-0.214,0-0.394,0.041-0.539,0.119
			c-0.145,0.08-0.26,0.185-0.347,0.315C1.476,5.074,1.414,5.224,1.376,5.394C1.339,5.566,1.32,5.742,1.32,5.924
			c0,0.168,0.02,0.332,0.06,0.49s0.102,0.301,0.186,0.424s0.194,0.223,0.329,0.297s0.296,0.111,0.483,0.111
			c0.294,0,0.524-0.076,0.689-0.23s0.267-0.372,0.305-0.651H3.98c-0.065,0.448-0.232,0.793-0.5,1.036
			C3.211,7.645,2.847,7.766,2.384,7.766c-0.275,0-0.519-0.045-0.731-0.133c-0.212-0.09-0.39-0.215-0.532-0.379
			C0.979,7.09,0.871,6.897,0.799,6.67C0.727,6.443,0.69,6.195,0.69,5.924c0-0.27,0.035-0.523,0.105-0.76
			c0.07-0.235,0.176-0.441,0.318-0.616c0.143-0.175,0.321-0.312,0.536-0.413c0.215-0.1,0.464-0.15,0.749-0.15
			c0.206,0,0.398,0.024,0.578,0.074c0.18,0.049,0.338,0.125,0.476,0.228c0.137,0.103,0.25,0.232,0.339,0.388
			C3.88,4.83,3.936,5.015,3.959,5.23H3.343C3.297,5.002,3.199,4.824,3.049,4.698z"/>
		<path fill="#FCFCFC" d="M4.106,5.136c0.075-0.231,0.187-0.432,0.336-0.602c0.149-0.17,0.333-0.305,0.553-0.403
			c0.219-0.098,0.471-0.147,0.756-0.147c0.29,0,0.542,0.049,0.76,0.147c0.217,0.098,0.4,0.232,0.549,0.403
			c0.149,0.17,0.261,0.371,0.336,0.602c0.075,0.23,0.112,0.479,0.112,0.746c0,0.266-0.038,0.512-0.112,0.74
			c-0.075,0.231-0.187,0.43-0.336,0.6S6.728,7.526,6.511,7.621c-0.217,0.096-0.47,0.145-0.76,0.145
			c-0.285,0-0.537-0.049-0.756-0.145S4.591,7.393,4.442,7.223c-0.149-0.17-0.262-0.369-0.336-0.6
			c-0.075-0.229-0.112-0.475-0.112-0.74C3.994,5.615,4.031,5.367,4.106,5.136z M4.712,6.467C4.77,6.636,4.851,6.78,4.953,6.893
			c0.103,0.115,0.223,0.203,0.36,0.264s0.284,0.09,0.438,0.09c0.154,0,0.3-0.029,0.438-0.09s0.258-0.148,0.361-0.264
			C6.652,6.78,6.732,6.636,6.791,6.467c0.059-0.17,0.088-0.365,0.088-0.584c0-0.221-0.029-0.414-0.088-0.586
			c-0.058-0.17-0.139-0.312-0.241-0.43C6.446,4.75,6.326,4.661,6.188,4.601S5.905,4.509,5.751,4.509c-0.154,0-0.3,0.031-0.438,0.092
			S5.056,4.75,4.953,4.866c-0.103,0.118-0.183,0.26-0.241,0.43C4.653,5.469,4.624,5.662,4.624,5.883
			C4.624,6.101,4.653,6.297,4.712,6.467z"/>
		<path fill="#FCFCFC" d="M8.312,4.069v0.574h0.016c0.246-0.438,0.639-0.658,1.176-0.658c0.236,0,0.436,0.033,0.594,0.098
			s0.287,0.156,0.385,0.273c0.1,0.117,0.168,0.255,0.207,0.417c0.039,0.16,0.061,0.338,0.061,0.536v2.379h-0.596v-2.45
			c0-0.225-0.066-0.402-0.195-0.533C9.828,4.575,9.648,4.509,9.42,4.509c-0.184,0-0.34,0.029-0.473,0.084
			C8.814,4.65,8.703,4.729,8.613,4.831C8.525,4.935,8.459,5.054,8.414,5.193C8.371,5.33,8.348,5.48,8.348,5.644v2.043H7.753V4.069
			H8.312z"/>
		<path fill="#FCFCFC" d="M10.826,4.593V4.069h0.609V3.53c0-0.294,0.085-0.517,0.255-0.668c0.171-0.151,0.419-0.228,0.746-0.228
			c0.056,0,0.12,0.005,0.192,0.014s0.137,0.023,0.192,0.042v0.518c-0.052-0.019-0.107-0.032-0.168-0.039s-0.117-0.01-0.168-0.01
			c-0.145,0-0.257,0.028-0.336,0.084c-0.08,0.056-0.119,0.163-0.119,0.322v0.504h0.7v0.524h-0.7v3.095h-0.595V4.593H10.826z"/>
		<path fill="#FCFCFC" d="M12.843,3.418V2.69h0.595v0.728H12.843z M13.438,4.069v3.619h-0.595V4.069H13.438z"/>
		<path fill="#FCFCFC" d="M16.622,8.711c-0.271,0.293-0.695,0.439-1.274,0.439c-0.168,0-0.339-0.018-0.514-0.055
			c-0.176-0.039-0.334-0.1-0.477-0.184s-0.26-0.193-0.354-0.328c-0.094-0.135-0.145-0.301-0.154-0.496h0.596
			c0.004,0.105,0.038,0.197,0.102,0.271c0.062,0.076,0.14,0.137,0.23,0.182c0.091,0.047,0.19,0.082,0.298,0.101
			c0.107,0.021,0.21,0.033,0.308,0.033c0.196,0,0.361-0.035,0.497-0.101c0.136-0.068,0.247-0.162,0.336-0.281
			s0.153-0.262,0.192-0.43c0.04-0.168,0.06-0.354,0.06-0.553V7.073h-0.014c-0.103,0.225-0.258,0.389-0.466,0.494
			c-0.207,0.104-0.428,0.156-0.661,0.156c-0.271,0-0.507-0.049-0.707-0.146c-0.201-0.098-0.369-0.23-0.504-0.396
			c-0.136-0.164-0.237-0.359-0.305-0.581c-0.067-0.223-0.102-0.457-0.102-0.703c0-0.215,0.028-0.436,0.084-0.662
			s0.149-0.431,0.28-0.616s0.303-0.336,0.518-0.455s0.479-0.179,0.791-0.179c0.229,0,0.438,0.05,0.63,0.15
			c0.191,0.101,0.341,0.251,0.448,0.452h0.007V4.069h0.561v3.312C17.028,7.973,16.893,8.416,16.622,8.711z M15.862,7.082
			C16,7,16.111,6.893,16.195,6.76c0.084-0.133,0.146-0.284,0.186-0.452c0.039-0.168,0.06-0.336,0.06-0.504
			c0-0.158-0.02-0.314-0.057-0.469s-0.097-0.293-0.179-0.417c-0.081-0.124-0.188-0.223-0.318-0.297
			c-0.131-0.075-0.289-0.113-0.476-0.113c-0.191,0-0.354,0.037-0.49,0.109s-0.246,0.169-0.332,0.29
			c-0.087,0.123-0.149,0.261-0.189,0.419c-0.04,0.16-0.06,0.326-0.06,0.498c0,0.164,0.017,0.326,0.049,0.49
			c0.033,0.162,0.089,0.311,0.168,0.444c0.08,0.133,0.185,0.24,0.315,0.322s0.294,0.123,0.49,0.123
			C15.558,7.205,15.725,7.164,15.862,7.082z"/>
	</g>
	<text transform="matrix(1 0 0 1 1.668 9.6794)" display="none" font-family="'HelveticaNeue'" font-size="6">config</text>
</g>
<g id="Layer_3" display="none">
	<g id="Next" display="inline">
		
			<ellipse transform="matrix(0.334 0.9426 -0.9426 0.334 11.4088 -4.6052)" fill="#73A02B" cx="8.963" cy="5.771" rx="8.237" ry="9.548"/>
		
			<ellipse transform="matrix(0.334 0.9426 -0.9426 0.334 11.4596 -4.6745)" fill="#73A02B" cx="9.038" cy="5.772" rx="8.238" ry="9.548"/>
		<path opacity="0.2" fill="#010101" enable-background="new    " d="M4.387,13.394c-1.729-0.764-2.538-1.617-3.281-2.514
			c0-0.131,12.697-6.016,12.697-6.016S3.488-0.188,3.401-0.275C3.314-0.363,5.306-1.938,7.339-2.244
			c0.285,0.175,10.563,5.28,10.563,5.28v3.74C17.902,6.778,4.474,13.394,4.387,13.394z"/>
		<g>
			<path fill="#FFFFFF" d="M5.805,8.023H4.837V5.234c0-0.35-0.07-0.61-0.211-0.783C4.485,4.279,4.262,4.192,3.955,4.192
				c-0.407,0-0.706,0.12-0.895,0.36c-0.189,0.241-0.283,0.645-0.283,1.21v2.26H1.814V3.486h0.755l0.135,0.593h0.05
				c0.137-0.217,0.331-0.382,0.583-0.5c0.252-0.117,0.529-0.175,0.835-0.175c1.089,0,1.633,0.554,1.633,1.661V8.023z"/>
			<path fill="#FFFFFF" d="M8.354,8.104c-0.706,0-1.257-0.203-1.654-0.617c-0.398-0.412-0.597-0.977-0.597-1.7
				c0-0.739,0.185-1.322,0.553-1.745c0.369-0.426,0.877-0.638,1.521-0.638c0.599,0,1.072,0.182,1.419,0.546
				c0.349,0.365,0.521,0.864,0.521,1.503v0.521H7.096c0.014,0.44,0.132,0.778,0.356,1.016c0.226,0.234,0.54,0.353,0.947,0.353
				c0.268,0,0.519-0.024,0.748-0.076c0.231-0.051,0.48-0.135,0.745-0.251v0.782C9.656,7.909,9.419,7.99,9.177,8.036
				C8.938,8.081,8.664,8.104,8.354,8.104z M8.178,4.135c-0.307,0-0.551,0.096-0.735,0.289c-0.186,0.195-0.296,0.479-0.33,0.851
				h2.059C9.166,4.9,9.075,4.616,8.899,4.422C8.725,4.231,8.484,4.135,8.178,4.135z"/>
			<path fill="#FFFFFF" d="M11.45,5.705L9.928,3.487h1.101l1.032,1.588l1.042-1.588h1.09l-1.524,2.219l1.603,2.317H13.18
				l-1.119-1.697l-1.114,1.697H9.855L11.45,5.705z"/>
			<path fill="#FFFFFF" d="M15.983,7.325c0.235,0,0.472-0.036,0.706-0.11v0.726c-0.107,0.048-0.244,0.086-0.413,0.115
				c-0.168,0.032-0.343,0.047-0.523,0.047c-0.912,0-1.37-0.481-1.37-1.443V4.217h-0.62V3.79l0.665-0.353l0.327-0.96h0.594v1.009
				h1.291v0.73h-1.291v2.427c0,0.231,0.059,0.404,0.174,0.515C15.641,7.269,15.797,7.325,15.983,7.325z"/>
		</g>
	</g>
</g>
<g id="Layer_2" display="none">
	<g id="Layer_1_1_" display="inline">
		
			<ellipse transform="matrix(0.334 0.9426 -0.9426 0.334 11.5475 -4.5086)" fill="#D12929" cx="8.964" cy="5.917" rx="8.237" ry="9.547"/>
		<path opacity="0.2" fill="#010101" enable-background="new    " d="M4.315,13.543c-1.729-0.766-2.538-1.619-3.281-2.516
			c0-0.133,12.697-6.015,12.697-6.015S3.417-0.043,3.33-0.13s1.904-1.663,3.938-1.969c0.285,0.175,10.563,5.281,10.563,5.281v3.74
			C17.831,6.924,4.402,13.543,4.315,13.543z"/>
		<g>
			<path fill="#FFFFFF" d="M3.911,8.617C3.246,8.626,2.719,8.43,2.33,8.03C1.94,7.632,1.741,7.072,1.734,6.352
				C1.725,5.629,1.896,5.05,2.247,4.619c0.353-0.432,0.829-0.65,1.43-0.658c0.563-0.006,1.011,0.174,1.344,0.54
				c0.333,0.365,0.503,0.853,0.511,1.46l0.005,0.431L2.439,6.43c0.021,0.526,0.159,0.926,0.416,1.198
				C3.112,7.899,3.47,8.031,3.929,8.024c0.484-0.006,0.962-0.111,1.433-0.321l0.007,0.606C5.13,8.417,4.903,8.492,4.688,8.541
				C4.473,8.587,4.214,8.615,3.911,8.617z M3.676,4.531C3.314,4.535,3.027,4.656,2.816,4.895c-0.212,0.24-0.334,0.564-0.367,0.98
				l2.35-0.028C4.794,5.418,4.694,5.089,4.5,4.863C4.306,4.637,4.031,4.528,3.676,4.531z"/>
			<path fill="#FFFFFF" d="M8.782,8.475L8.64,7.837H8.606C8.386,8.122,8.166,8.316,7.944,8.42C7.723,8.522,7.445,8.573,7.111,8.577
				C6.666,8.584,6.315,8.472,6.06,8.247C5.803,8.021,5.672,7.694,5.667,7.272C5.655,6.364,6.375,5.879,7.826,5.817L8.59,5.782
				L8.585,5.504C8.581,5.15,8.501,4.892,8.348,4.726C8.193,4.558,7.95,4.479,7.617,4.483C7.243,4.487,6.819,4.606,6.35,4.842
				L6.135,4.324c0.219-0.123,0.461-0.221,0.724-0.293C7.121,3.96,7.385,3.922,7.649,3.919c0.536-0.006,0.935,0.108,1.196,0.343
				c0.262,0.233,0.395,0.614,0.402,1.14l0.039,3.067L8.782,8.475z M7.238,8.014c0.424-0.005,0.755-0.123,0.994-0.361
				c0.239-0.235,0.356-0.562,0.351-0.981L8.578,6.267L7.897,6.304C7.357,6.33,6.968,6.418,6.73,6.571
				c-0.238,0.152-0.354,0.385-0.351,0.7c0.004,0.246,0.08,0.433,0.23,0.559S6.97,8.018,7.238,8.014z"/>
			<path fill="#FFFFFF" d="M12.868,7.198c0.006,0.416-0.146,0.742-0.454,0.976c-0.31,0.229-0.749,0.349-1.309,0.355
				c-0.598,0.007-1.062-0.081-1.398-0.266L9.698,7.631c0.218,0.109,0.449,0.192,0.697,0.248c0.247,0.061,0.488,0.089,0.719,0.086
				C11.47,7.959,11.74,7.9,11.932,7.784c0.189-0.116,0.284-0.288,0.282-0.522c-0.002-0.174-0.08-0.325-0.235-0.445
				c-0.154-0.122-0.451-0.267-0.895-0.43c-0.418-0.152-0.72-0.283-0.897-0.397S9.876,5.746,9.788,5.598
				C9.7,5.45,9.654,5.275,9.652,5.071c-0.004-0.368,0.141-0.658,0.437-0.873c0.294-0.216,0.701-0.327,1.223-0.331
				c0.483-0.009,0.955,0.087,1.421,0.276l-0.235,0.557c-0.453-0.183-0.866-0.27-1.229-0.264c-0.324,0.005-0.566,0.058-0.73,0.159
				c-0.162,0.105-0.242,0.243-0.239,0.422c0.004,0.123,0.034,0.225,0.098,0.309s0.162,0.164,0.3,0.238
				c0.138,0.076,0.404,0.18,0.794,0.322c0.537,0.188,0.897,0.377,1.089,0.573C12.767,6.654,12.866,6.9,12.868,7.198z"/>
			<path fill="#FFFFFF" d="M12.518,3.933l0.729-0.01l1.017,2.552c0.224,0.583,0.362,1.004,0.417,1.263l0.032-0.001
				c0.034-0.141,0.105-0.378,0.215-0.719c0.108-0.341,0.464-1.381,1.071-3.128l0.731-0.011l-1.867,5.142
				c-0.188,0.508-0.404,0.867-0.658,1.084c-0.252,0.215-0.564,0.328-0.938,0.328c-0.206,0.004-0.416-0.02-0.615-0.064l-0.006-0.545
				c0.149,0.029,0.317,0.045,0.502,0.041c0.466-0.006,0.798-0.271,0.989-0.801l0.24-0.641L12.518,3.933z"/>
		</g>
	</g>
</g>
</svg>
