<?xml version="1.0" encoding="utf-8"?>
<!-- Generator: Adobe Illustrator 16.0.4, SVG Export Plug-In . SVG Version: 6.00 Build 0)  -->
<!DOCTYPE svg PUBLIC "-//W3C//DTD SVG 1.1//EN" "http://www.w3.org/Graphics/SVG/1.1/DTD/svg11.dtd">
<svg version="1.1" xmlns="http://www.w3.org/2000/svg" xmlns:xlink="http://www.w3.org/1999/xlink" x="0px" y="0px" width="20px"
	 height="16.277px" viewBox="0 0 20 16.277" enable-background="new 0 0 20 16.277" xml:space="preserve">
<g id="Layer_1" display="none">
	
		<ellipse transform="matrix(-0.334 -0.9426 0.9426 -0.334 5.6269 20.2457)" display="inline" fill="#D12929" cx="9.966" cy="8.135" rx="7.844" ry="9.093"/>
	<path display="inline" opacity="0.2" fill="#010101" enable-background="new    " d="M5.538,15.396
		C3.892,14.667,3.121,13.854,2.413,13c0-0.125,12.093-5.729,12.093-5.729S4.683,2.458,4.6,2.375S6.413,0.791,8.35,0.5
		C8.621,0.667,18.41,5.53,18.41,5.53v3.563C18.41,9.093,5.621,15.396,5.538,15.396z"/>
	<g display="inline">
		<path fill="#FFFFFF" d="M5.153,10.706c-0.633,0.008-1.135-0.179-1.505-0.561C3.277,9.767,3.087,9.233,3.08,8.548
			c-0.009-0.689,0.154-1.24,0.489-1.65c0.335-0.411,0.789-0.62,1.361-0.627c0.537-0.006,0.963,0.165,1.28,0.514
			s0.479,0.812,0.486,1.391l0.005,0.41L3.752,8.622c0.02,0.502,0.151,0.882,0.396,1.14c0.244,0.258,0.585,0.383,1.022,0.377
			c0.461-0.004,0.916-0.106,1.364-0.305l0.007,0.578c-0.227,0.101-0.443,0.175-0.648,0.221C5.688,10.678,5.442,10.703,5.153,10.706z
			 M4.929,6.814C4.585,6.818,4.312,6.933,4.111,7.16c-0.202,0.227-0.318,0.538-0.35,0.934l2.238-0.028
			c-0.005-0.408-0.1-0.721-0.285-0.936S5.268,6.81,4.929,6.814z"/>
		<path fill="#FFFFFF" d="M9.792,10.57L9.656,9.963H9.625c-0.21,0.271-0.42,0.455-0.631,0.553c-0.211,0.097-0.475,0.148-0.793,0.152
			c-0.424,0.006-0.758-0.101-1.002-0.316C6.955,10.137,6.83,9.826,6.825,9.424C6.814,8.559,7.5,8.097,8.882,8.038l0.727-0.032
			L9.605,7.74c-0.004-0.337-0.08-0.583-0.226-0.741C9.232,6.84,9,6.763,8.683,6.767C8.326,6.771,7.923,6.886,7.476,7.11L7.271,6.617
			C7.479,6.5,7.71,6.407,7.96,6.338C8.21,6.27,8.462,6.234,8.714,6.231c0.51-0.006,0.89,0.103,1.139,0.326
			c0.249,0.223,0.376,0.585,0.383,1.085l0.037,2.922L9.792,10.57z M8.322,10.131c0.404-0.005,0.719-0.119,0.947-0.344
			s0.339-0.535,0.334-0.935L9.598,8.467L8.95,8.502C8.435,8.527,8.064,8.611,7.838,8.756C7.612,8.901,7.501,9.123,7.505,9.423
			c0.003,0.234,0.076,0.412,0.219,0.532S8.066,10.135,8.322,10.131z"/>
		<path fill="#FFFFFF" d="M13.684,9.354c0.006,0.398-0.14,0.707-0.433,0.929c-0.295,0.219-0.713,0.332-1.246,0.339
			c-0.569,0.007-1.012-0.077-1.332-0.253l-0.008-0.603c0.207,0.104,0.428,0.183,0.664,0.238c0.235,0.056,0.465,0.084,0.685,0.081
			c0.338-0.005,0.596-0.062,0.778-0.172c0.181-0.11,0.271-0.276,0.269-0.497c-0.002-0.166-0.076-0.31-0.224-0.425
			c-0.147-0.116-0.43-0.254-0.853-0.409c-0.397-0.145-0.684-0.27-0.854-0.378c-0.169-0.109-0.296-0.233-0.38-0.373
			c-0.083-0.141-0.127-0.308-0.129-0.502c-0.004-0.351,0.134-0.627,0.416-0.832c0.28-0.205,0.668-0.312,1.164-0.317
			c0.461-0.006,0.911,0.083,1.354,0.264l-0.225,0.53c-0.432-0.172-0.824-0.255-1.17-0.251c-0.309,0.004-0.539,0.055-0.695,0.153
			c-0.154,0.099-0.23,0.231-0.229,0.401C11.24,7.393,11.27,7.49,11.33,7.57c0.061,0.08,0.154,0.156,0.285,0.228
			S12,7.97,12.371,8.104c0.512,0.18,0.855,0.36,1.037,0.546C13.587,8.835,13.682,9.069,13.684,9.354z"/>
		<path fill="#FFFFFF" d="M13.35,6.244l0.694-0.009l0.968,2.43c0.213,0.555,0.346,0.956,0.397,1.203l0.03-0.001
			c0.033-0.135,0.101-0.36,0.205-0.685s0.443-1.315,1.021-2.979l0.697-0.01l-1.779,4.898c-0.178,0.483-0.385,0.827-0.627,1.032
			c-0.24,0.206-0.537,0.311-0.893,0.313c-0.197,0.003-0.396-0.018-0.586-0.06l-0.006-0.52c0.143,0.029,0.303,0.043,0.479,0.04
			c0.444-0.006,0.76-0.259,0.942-0.762l0.23-0.612L13.35,6.244z"/>
	</g>
</g>
<g id="Layer_2">
	
		<ellipse transform="matrix(-0.334 -0.9426 0.9426 -0.334 5.8496 20.1242)" fill="#73A02B" cx="10.034" cy="7.996" rx="7.844" ry="9.093"/>
	<path opacity="0.2" fill="#010101" enable-background="new    " d="M5.606,15.256c-1.646-0.729-2.417-1.541-3.125-2.395
		c0-0.125,12.093-5.729,12.093-5.729S4.751,2.319,4.668,2.236s1.813-1.584,3.75-1.875C8.689,0.528,18.479,5.39,18.479,5.39v3.563
		C18.479,8.953,5.689,15.256,5.606,15.256z"/>
	<g>
		<path fill="#FFFFFF" d="M6.957,10.139H6.035V7.483c0-0.333-0.067-0.582-0.201-0.746S5.487,6.49,5.195,6.49
			c-0.388,0-0.672,0.115-0.852,0.344s-0.27,0.613-0.27,1.152v2.152H3.156v-4.32h0.719l0.129,0.566h0.047
			c0.13-0.206,0.315-0.365,0.555-0.477S5.111,5.74,5.402,5.74c1.037,0,1.555,0.527,1.555,1.582V10.139z"/>
		<path fill="#FFFFFF" d="M9.385,10.217c-0.672,0-1.197-0.195-1.576-0.588S7.241,8.698,7.241,8.01c0-0.706,0.176-1.26,0.527-1.664
			S8.603,5.74,9.217,5.74c0.57,0,1.021,0.173,1.351,0.52c0.332,0.346,0.496,0.823,0.496,1.43v0.496H8.186
			c0.013,0.419,0.126,0.742,0.34,0.967S9.04,9.49,9.428,9.49c0.255,0,0.494-0.023,0.712-0.072c0.221-0.049,0.457-0.129,0.709-0.24
			v0.746c-0.223,0.107-0.449,0.182-0.68,0.227C9.941,10.195,9.68,10.217,9.385,10.217z M9.217,6.436
			c-0.292,0-0.525,0.092-0.701,0.277S8.235,7.168,8.202,7.522h1.96c-0.004-0.357-0.09-0.627-0.258-0.811
			C9.738,6.528,9.509,6.436,9.217,6.436z"/>
		<path fill="#FFFFFF" d="M12.333,7.932l-1.449-2.113h1.047l0.984,1.512l0.992-1.512h1.039l-1.453,2.113l1.527,2.207h-1.039
			l-1.066-1.617l-1.062,1.617h-1.039L12.333,7.932z"/>
		<path fill="#FFFFFF" d="M16.651,9.475c0.224,0,0.448-0.035,0.672-0.105v0.691c-0.102,0.045-0.232,0.081-0.393,0.111
			s-0.326,0.045-0.498,0.045c-0.87,0-1.305-0.459-1.305-1.375V6.514h-0.59V6.108l0.633-0.336l0.312-0.914h0.566v0.961h1.23v0.695
			h-1.23v2.312c0,0.221,0.056,0.385,0.166,0.49S16.472,9.475,16.651,9.475z"/>
	</g>
</g>
</svg>
