<?xml version="1.0" encoding="utf-8"?>
<!-- Generator: Adobe Illustrator 16.0.0, SVG Export Plug-In . SVG Version: 6.00 Build 0)  -->
<!DOCTYPE svg PUBLIC "-//W3C//DTD SVG 1.1//EN" "http://www.w3.org/Graphics/SVG/1.1/DTD/svg11.dtd">
<svg version="1.1" id="Layer_1" xmlns="http://www.w3.org/2000/svg" xmlns:xlink="http://www.w3.org/1999/xlink" x="0px" y="0px"
	 width="105px" height="135px" viewBox="0 0 105 135" enable-background="new 0 0 105 135" xml:space="preserve">
<linearGradient id="Embedded_Intelligence_2_" gradientUnits="userSpaceOnUse" x1="75" y1="619.5879" x2="94.5117" y2="619.5879" gradientTransform="matrix(-4.371139e-08 1 1 4.371139e-08 -612 -74.9995)">
	<stop  offset="0" style="stop-color:#FCC01D"/>
	<stop  offset="1" style="stop-color:#F2A900"/>
</linearGradient>
<path id="Embedded_Intelligence_1_" fill="url(#Embedded_Intelligence_2_)" d="M14.742,0H0.434C0.195,0,0,0.195,0,0.434v14.309
	c0,0.239,0.195,0.434,0.434,0.434h6.504v-1.518c0-0.358,0.292-0.651,0.65-0.651h6.071c0.358,0,0.65,0.292,0.65,0.651v1.518h0.434
	c0.239,0,0.434-0.195,0.434-0.434V0.434C15.176,0.195,14.981,0,14.742,0z M3.252,0.867h10.84c0.12,0,0.216,0.097,0.216,0.217
	s-0.097,0.217-0.216,0.217H3.252c-0.12,0-0.217-0.097-0.217-0.217S3.132,0.867,3.252,0.867z M1.951,0.867
	c0.12,0,0.217,0.097,0.217,0.217S2.071,1.301,1.951,1.301S1.734,1.204,1.734,1.084S1.832,0.867,1.951,0.867z M1.084,0.867
	c0.12,0,0.217,0.097,0.217,0.217S1.204,1.301,1.084,1.301S0.867,1.204,0.867,1.084S0.964,0.867,1.084,0.867z M5.637,12.574H1.301
	v-0.433h4.336V12.574z M1.301,11.273V10.84H4.77v0.434H1.301z M6.07,9.973h-4.77V9.539h4.77V9.973z M6.07,7.805h-4.77V7.371h4.77
	V7.805z M5.203,6.07v0.434H1.301V6.07H5.203z M1.301,5.203V4.77h4.336v0.433H1.301z M8.672,11.708h-0.65
	c-0.358,0-0.65-0.292-0.65-0.651v-0.65c0-0.12,0.097-0.216,0.217-0.216c0.12,0,0.217,0.097,0.217,0.216v0.65
	c0,0.12,0.097,0.217,0.217,0.217h0.65c0.12,0,0.217,0.097,0.217,0.217C8.889,11.61,8.792,11.708,8.672,11.708z M8.672,5.203h-0.65
	c-0.12,0-0.217,0.098-0.217,0.217v0.65c0,0.12-0.097,0.217-0.217,0.217c-0.12,0-0.217-0.097-0.217-0.217V5.42
	c0-0.358,0.292-0.65,0.65-0.65h0.65c0.12,0,0.217,0.097,0.217,0.216C8.889,5.106,8.792,5.203,8.672,5.203z M11.273,12.574h-1.3
	v-2.168H9.105l1.518-1.951l1.518,1.951h-0.868V12.574z M13.875,11.057c0,0.358-0.292,0.651-0.651,0.651h-0.65
	c-0.12,0-0.216-0.097-0.216-0.217c0-0.12,0.097-0.217,0.216-0.217h0.65c0.12,0,0.217-0.097,0.217-0.217v-0.65
	c0-0.12,0.097-0.216,0.217-0.216s0.217,0.097,0.217,0.216V11.057z M13.875,6.07c0,0.12-0.097,0.217-0.217,0.217
	S13.442,6.19,13.442,6.07V5.42c0-0.119-0.097-0.217-0.217-0.217h-0.65c-0.12,0-0.216-0.097-0.216-0.217
	c0-0.12,0.097-0.216,0.216-0.216h0.65c0.359,0,0.651,0.292,0.651,0.65V6.07z M14.742,2.168H0.434V2.023h14.309V2.168z
	 M13.659,13.442H7.588c-0.119,0-0.217,0.097-0.217,0.217v5.637c0,0.119,0.098,0.217,0.217,0.217h6.071
	c0.119,0,0.217-0.098,0.217-0.217v-5.637C13.875,13.539,13.778,13.442,13.659,13.442z M11.708,16.708l-2.168,1.077v-0.476
	l1.681-0.829l-1.681-0.817v-0.487l2.168,1.088V16.708z"/>
</svg>
