<?xml version="1.0" encoding="utf-8"?>
<!-- Generator: Adobe Illustrator 16.0.4, SVG Export Plug-In . SVG Version: 6.00 Build 0)  -->
<!DOCTYPE svg PUBLIC "-//W3C//DTD SVG 1.1//EN" "http://www.w3.org/Graphics/SVG/1.1/DTD/svg11.dtd">
<svg version="1.1" xmlns="http://www.w3.org/2000/svg" xmlns:xlink="http://www.w3.org/1999/xlink" x="0px" y="0px" width="20px"
	 height="18px" viewBox="0 -1.167 20 18" enable-background="new 0 -1.167 20 18" xml:space="preserve">
<g id="Layer_1">
	<g display="none">
		<path display="inline" fill="#E8BB00" d="M18.571,4.765c1.447,4.125-1.217,8.843-5.95,10.538
			c-4.734,1.694-9.744-0.275-11.191-4.401C-0.018,6.776,2.647,2.057,7.381,0.363C12.114-1.331,17.125,0.639,18.571,4.765z"/>
		<path display="inline" opacity="0.2" fill="#010101" enable-background="new    " d="M5.534,15.194
			c-1.646-0.729-2.417-1.541-3.125-2.396c0-0.125,12.094-5.729,12.094-5.729S4.679,2.257,4.596,2.174s1.813-1.584,3.75-1.875
			c0.271,0.167,10.062,5.029,10.062,5.029v3.562C18.407,8.891,5.617,15.194,5.534,15.194z"/>
		<g display="inline">
			<path fill="#423601" d="M1.56,9.166l0.186-0.229C1.932,9.17,2.273,9.363,2.682,9.363c0.485,0,0.773-0.252,0.773-0.588
				c0-0.792-1.829-0.342-1.829-1.385c0-0.443,0.378-0.805,1.031-0.805c0.498,0,0.828,0.192,1.038,0.428L3.521,7.234
				C3.353,7.006,3.041,6.85,2.657,6.85c-0.45,0-0.719,0.228-0.719,0.526c0,0.728,1.823,0.282,1.823,1.397
				c0,0.468-0.36,0.852-1.085,0.852C2.207,9.627,1.847,9.489,1.56,9.166z"/>
			<path fill="#423601" d="M4.091,8.104c0-0.848,0.552-1.519,1.403-1.519c0.504,0,0.792,0.198,1.025,0.492L6.304,7.27
				C6.094,6.982,5.83,6.868,5.512,6.868c-0.678,0-1.091,0.54-1.091,1.235c0,0.693,0.414,1.242,1.091,1.242
				c0.318,0,0.582-0.12,0.792-0.408L6.52,9.129C6.286,9.429,5.999,9.627,5.495,9.627C4.643,9.627,4.091,8.949,4.091,8.104z"/>
			<path fill="#423601" d="M6.905,9.554V6.658h0.312v0.498c0.246-0.324,0.576-0.558,0.978-0.558V6.94
				C8.141,6.928,8.099,6.928,8.039,6.928c-0.294,0-0.689,0.264-0.822,0.516v2.11H6.905z"/>
			<path fill="#423601" d="M10.631,9.554V9.094c-0.205,0.301-0.577,0.533-1.008,0.533c-0.767,0-1.289-0.588-1.289-1.517
				c0-0.917,0.522-1.523,1.289-1.523c0.414,0,0.773,0.21,1.008,0.54V6.658h0.316v2.896H10.631z M10.631,8.83V7.396
				c-0.168-0.276-0.546-0.528-0.954-0.528c-0.642,0-1.014,0.54-1.014,1.241s0.372,1.236,1.014,1.236
				C10.084,9.345,10.462,9.105,10.631,8.83z"/>
			<path fill="#423601" d="M11.67,8.998V6.934h-0.48V6.658h0.48V5.867h0.316v0.792h0.588v0.276h-0.588V8.95
				c0,0.234,0.096,0.396,0.301,0.396c0.139,0,0.258-0.066,0.324-0.141l0.119,0.24c-0.113,0.107-0.252,0.18-0.492,0.18
				C11.855,9.627,11.67,9.392,11.67,8.998z"/>
			<path fill="#423601" d="M12.785,8.104c0-0.848,0.553-1.519,1.402-1.519c0.504,0,0.793,0.198,1.025,0.492L14.998,7.27
				c-0.209-0.288-0.475-0.402-0.791-0.402c-0.678,0-1.092,0.54-1.092,1.235c0,0.693,0.414,1.242,1.092,1.242
				c0.316,0,0.582-0.12,0.791-0.408l0.217,0.189c-0.234,0.303-0.523,0.498-1.027,0.498C13.338,9.627,12.785,8.949,12.785,8.104z"/>
			<path fill="#423601" d="M17.555,9.554V7.582c0-0.558-0.281-0.713-0.701-0.713c-0.373,0-0.756,0.234-0.939,0.498v2.188H15.6v-4
				h0.312v1.542c0.209-0.252,0.623-0.512,1.043-0.512c0.588,0,0.912,0.276,0.912,0.931v2.039L17.555,9.554L17.555,9.554z"/>
		</g>
	</g>
	<g display="none">
		
			<ellipse transform="matrix(0.9426 -0.334 0.334 0.9426 -2.0529 3.7258)" display="inline" fill="#A0A09F" cx="9.808" cy="7.833" rx="9.564" ry="8.251"/>
		<path display="inline" opacity="0.2" fill="#010101" enable-background="new    " d="M4.982,15.486
			c-1.731-0.766-2.542-1.619-3.287-2.52c0-0.131,12.719-6.023,12.719-6.023S4.083,1.882,3.995,1.795
			C3.908,1.708,5.902,0.129,7.939-0.177c0.285,0.176,10.583,5.289,10.583,5.289v3.745C18.52,8.859,5.069,15.486,4.982,15.486z"/>
		
			<text transform="matrix(1 0 0 1 1.0894 8.9548)" fill="#FFFFFF" enable-background="new    " font-family="'Avenir-Black'" font-size="6.3099">config</text>
		<text transform="matrix(1 0 0 1 2.8623 9.0798)" display="inline" fill="#FFFFFF" font-family="'Avenir-Black'" font-size="5">config</text>
	</g>
	<g id="Next" display="none">
		
			<ellipse transform="matrix(0.9426 -0.334 0.334 0.9426 -2.0468 3.7123)" display="inline" fill="#73A02B" cx="9.772" cy="7.808" rx="9.093" ry="7.845"/>
		
			<ellipse transform="matrix(0.9426 -0.334 0.334 0.9426 -2.0427 3.7359)" display="inline" fill="#73A02B" cx="9.843" cy="7.808" rx="9.093" ry="7.846"/>
		<path display="inline" opacity="0.2" fill="#010101" enable-background="new    " d="M5.414,15.068
			c-1.646-0.729-2.417-1.541-3.125-2.395c0-0.125,12.093-5.729,12.093-5.729S4.559,2.132,4.476,2.049s1.813-1.584,3.75-1.875
			c0.271,0.167,10.061,5.029,10.061,5.029v3.562C18.286,8.765,5.497,15.068,5.414,15.068z"/>
		<g>
			<path display="inline" fill="#FFFFFF" d="M6.765,9.952H5.843V7.296c0-0.333-0.067-0.582-0.201-0.746S5.294,6.302,5.002,6.302
				c-0.388,0-0.672,0.115-0.852,0.344c-0.18,0.229-0.27,0.613-0.27,1.152v2.152H2.964v-4.32h0.719l0.129,0.563h0.047
				c0.13-0.206,0.315-0.362,0.555-0.477c0.24-0.11,0.505-0.165,0.796-0.165c1.037,0,1.555,0.527,1.555,1.582V9.952z"/>
			<path display="inline" fill="#FFFFFF" d="M9.192,10.029c-0.672,0-1.197-0.192-1.576-0.588C7.238,9.049,7.049,8.51,7.049,7.822
				c0-0.703,0.176-1.26,0.527-1.661c0.351-0.406,0.835-0.608,1.449-0.608c0.57,0,1.021,0.173,1.352,0.52
				c0.332,0.349,0.496,0.823,0.496,1.433v0.496H7.994C8.007,8.42,8.12,8.742,8.333,8.968C8.548,9.19,8.848,9.302,9.236,9.302
				c0.255,0,0.494-0.023,0.712-0.072c0.221-0.049,0.458-0.129,0.709-0.238v0.744c-0.226,0.107-0.452,0.185-0.683,0.229
				C9.749,10.008,9.488,10.029,9.192,10.029z M9.024,6.249c-0.292,0-0.525,0.092-0.701,0.274C8.147,6.711,8.042,6.98,8.01,7.335
				h1.96c-0.004-0.357-0.09-0.627-0.258-0.812C9.545,6.341,9.316,6.249,9.024,6.249z"/>
			<path display="inline" fill="#FFFFFF" d="M12.141,7.745l-1.449-2.113h1.048l0.983,1.512l0.992-1.512h1.038l-1.452,2.113
				l1.526,2.207h-1.039l-1.065-1.617l-1.062,1.617h-1.039L12.141,7.745z"/>
			<path display="inline" fill="#FFFFFF" d="M16.458,9.288c0.225,0,0.449-0.035,0.673-0.105v0.691
				c-0.103,0.045-0.232,0.081-0.394,0.108c-0.16,0.03-0.326,0.045-0.498,0.045c-0.869,0-1.307-0.459-1.307-1.375V6.327h-0.59V5.921
				l0.633-0.336l0.312-0.914h0.564v0.961h1.229v0.695h-1.229v2.312c0,0.221,0.057,0.385,0.166,0.49
				C16.132,9.233,16.28,9.288,16.458,9.288z"/>
		</g>
		
			<text transform="matrix(1 0 0 1 1.9971 9.9763)" display="inline" fill="#FFFFFF" font-family="'ProximaNova-Semibold'" font-size="8.5">start</text>
	</g>
	<g display="none">
		
			<ellipse transform="matrix(0.9426 -0.334 0.334 0.9426 -2.0887 3.7316)" display="inline" fill="#D12929" cx="9.808" cy="7.94" rx="9.093" ry="7.845"/>
		<path display="inline" opacity="0.2" fill="#010101" enable-background="new    " d="M5.38,15.202
			c-1.646-0.729-2.417-1.542-3.125-2.396c0-0.125,12.093-5.729,12.093-5.729S4.525,2.263,4.442,2.18s1.813-1.584,3.75-1.875
			c0.271,0.167,10.06,5.03,10.06,5.03v3.562C18.252,8.898,5.463,15.202,5.38,15.202z"/>
		
			<text transform="matrix(1 0 0 1 1.4399 9.6697)" fill="#FFFFFF" enable-background="new    " font-family="'ProximaNova-Semibold'" font-size="8.5">easy</text>
		
			<text transform="matrix(1 0 0 1 2.2554 9.6697)" fill="#FFFFFF" enable-background="new    " font-family="'ProximaNova-Semibold'" font-size="8.5">stop</text>
		<g id="stop_x5F_out" display="inline" enable-background="new    ">
			<path fill="#FFFFFF" d="M2.477,9.135l0.408-0.646c0.289,0.297,0.858,0.578,1.394,0.578c0.535,0,0.807-0.229,0.807-0.552
				c0-0.808-2.481-0.229-2.481-1.802c0-0.671,0.578-1.25,1.615-1.25c0.697,0,1.224,0.247,1.598,0.578L5.442,6.67
				C5.196,6.389,4.737,6.177,4.227,6.177c-0.467,0-0.765,0.212-0.765,0.501c0,0.731,2.481,0.187,2.481,1.819
				c0,0.723-0.604,1.274-1.708,1.274C3.539,9.771,2.901,9.551,2.477,9.135z"/>
			<path fill="#FFFFFF" d="M6.684,8.718V6.346h-0.68V5.565h0.68V4.443h0.893v1.122h0.833v0.782H7.576v2.15
				c0,0.28,0.136,0.484,0.391,0.484c0.17,0,0.331-0.068,0.399-0.145l0.212,0.672C8.417,9.661,8.154,9.771,7.738,9.771
				C7.049,9.771,6.684,9.397,6.684,8.718z"/>
			<path fill="#FFFFFF" d="M8.622,7.613c0-1.173,0.808-2.15,2.108-2.15c1.317,0,2.116,0.978,2.116,2.15
				c0,1.182-0.799,2.158-2.116,2.158C9.429,9.771,8.622,8.795,8.622,7.613z M11.919,7.613c0-0.723-0.425-1.36-1.189-1.36
				c-0.756,0-1.181,0.637-1.181,1.36c0,0.731,0.425,1.368,1.181,1.368C11.494,8.981,11.919,8.344,11.919,7.613z"/>
			<path fill="#FFFFFF" d="M14.299,9.1v2.133h-0.893V5.565h0.893v0.561c0.306-0.408,0.781-0.663,1.317-0.663
				c1.062,0,1.818,0.799,1.818,2.15s-0.756,2.158-1.818,2.158C15.098,9.771,14.63,9.542,14.299,9.1z M16.508,7.613
				c0-0.791-0.45-1.36-1.155-1.36c-0.417,0-0.858,0.246-1.054,0.552v1.624c0.195,0.297,0.637,0.552,1.054,0.552
				C16.058,8.981,16.508,8.412,16.508,7.613z"/>
		</g>
	</g>
	<g id="readme">
		<g>
			
				<ellipse transform="matrix(0.9426 -0.334 0.334 0.9426 -2.0244 3.7208)" fill="#4694E0" cx="9.808" cy="7.747" rx="9.547" ry="8.237"/>
		</g>
		<path opacity="0.2" fill="#010101" enable-background="new    " d="M5.388,15.23c-1.697-0.752-2.491-1.59-3.221-2.471
			c0-0.129,12.465-5.905,12.465-5.905S4.507,1.893,4.421,1.808C4.335,1.722,6.29,0.175,8.286-0.125
			c0.28,0.172,10.37,5.185,10.37,5.185v3.672C18.656,8.732,5.474,15.23,5.388,15.23z"/>
		<text transform="matrix(1 0 0 1 1.2368 8.7869)" display="none" enable-background="new    "><tspan x="0" y="0" display="inline" fill="#FFFFFF" font-family="'ProximaNova-Semibold'" font-size="5.5">readm</tspan><tspan x="14.184" y="0" display="inline" fill="#FFFFFF" font-family="'ProximaNova-Semibold'" font-size="5.5">e</tspan></text>
		<polygon fill="#F44711" points="11.719,14.78 10.045,13.943 8.407,14.844 8.688,12.996 7.323,11.717 9.168,11.411 9.964,9.719 
			10.823,11.38 12.677,11.613 11.366,12.946 		"/>
		<g id="readme_x5F_out" enable-background="new    ">
			<path fill="#FFFFFF" d="M1.61,8.787V6.134h0.577v0.39c0.198-0.252,0.517-0.451,0.862-0.451v0.571C3,6.634,2.94,6.629,2.868,6.629
				c-0.242,0-0.566,0.165-0.681,0.352v1.807H1.61z"/>
			<path fill="#FFFFFF" d="M3.051,7.458c0-0.77,0.561-1.39,1.346-1.39c0.796,0,1.307,0.61,1.307,1.445V7.65H3.656
				C3.7,8.051,4.002,8.381,4.501,8.381c0.258,0,0.566-0.104,0.753-0.291l0.264,0.379C5.254,8.722,4.864,8.853,4.441,8.853
				C3.645,8.853,3.051,8.298,3.051,7.458z M4.397,6.541c-0.495,0-0.72,0.379-0.747,0.703h1.494C5.133,6.931,4.919,6.541,4.397,6.541
				z"/>
			<path fill="#FFFFFF" d="M7.598,8.787V8.501C7.4,8.726,7.092,8.853,6.741,8.853c-0.434,0-0.923-0.292-0.923-0.879
				c0-0.61,0.489-0.862,0.923-0.862c0.357,0,0.665,0.115,0.857,0.34V7.057c0-0.308-0.253-0.494-0.621-0.494
				c-0.297,0-0.555,0.11-0.786,0.335L5.955,6.497C6.263,6.205,6.647,6.068,7.07,6.068c0.587,0,1.104,0.248,1.104,0.961v1.757H7.598z
				 M7.598,8.183V7.782C7.466,7.601,7.218,7.508,6.966,7.508C6.642,7.508,6.4,7.694,6.4,7.986c0,0.285,0.242,0.473,0.566,0.473
				C7.218,8.458,7.466,8.365,7.598,8.183z"/>
			<path fill="#FFFFFF" d="M10.491,8.787V8.425c-0.204,0.264-0.511,0.428-0.852,0.428c-0.681,0-1.181-0.516-1.181-1.39
				c0-0.857,0.495-1.396,1.181-1.396c0.33,0,0.637,0.154,0.852,0.434V5.123h0.576v3.664H10.491z M10.491,7.991V6.936
				c-0.133-0.198-0.413-0.357-0.687-0.357c-0.456,0-0.747,0.368-0.747,0.884c0,0.511,0.291,0.878,0.747,0.878
				C10.078,8.342,10.358,8.189,10.491,7.991z"/>
			<path fill="#FFFFFF" d="M14.768,8.787v-1.73c0-0.286-0.127-0.478-0.435-0.478c-0.258,0-0.5,0.181-0.615,0.352v1.856h-0.577v-1.73
				c0-0.286-0.126-0.478-0.439-0.478c-0.252,0-0.488,0.181-0.609,0.357v1.851h-0.576V6.134h0.576v0.363
				c0.11-0.165,0.462-0.429,0.862-0.429c0.396,0,0.638,0.198,0.726,0.489c0.153-0.241,0.505-0.489,0.9-0.489
				c0.489,0,0.764,0.264,0.764,0.802v1.917H14.768z"/>
			<path fill="#FFFFFF" d="M15.63,7.458c0-0.77,0.56-1.39,1.346-1.39c0.796,0,1.308,0.61,1.308,1.445V7.65h-2.049
				c0.043,0.401,0.346,0.731,0.846,0.731c0.258,0,0.565-0.104,0.752-0.291l0.264,0.379c-0.264,0.253-0.653,0.384-1.076,0.384
				C16.223,8.853,15.63,8.298,15.63,7.458z M16.976,6.541c-0.494,0-0.72,0.379-0.747,0.703h1.494
				C17.712,6.931,17.497,6.541,16.976,6.541z"/>
		</g>
	</g>
	<g id="search">
	</g>
</g>
<g id="Layer_2_1_">
</g>
</svg>
